<svg width="300" height="300" viewBox="0 0 300 300" fill="none" xmlns="http://www.w3.org/2000/svg">

<path d="M125.619 125.619C122.229 128.777 119.51 132.586 117.625 136.818C115.739 141.05 114.725 145.618 114.643 150.251C114.562 154.883 115.414 159.484 117.149 163.78C118.884 168.076 121.467 171.978 124.743 175.254C128.019 178.53 131.921 181.113 136.217 182.848C140.513 184.583 145.114 185.436 149.747 185.354C154.379 185.272 158.947 184.258 163.179 182.373C167.411 180.487 171.22 177.768 174.379 174.379M135.395 70.42C140.24 69.8164 145.117 69.5091 150 69.5C230.5 69.5 265 150 265 150C259.858 161.007 253.41 171.355 245.795 180.82M88.015 88.0162C65.1444 103.594 46.8435 124.992 35 150.001C35 150.001 69.5 230.501 150 230.501C172.033 230.56 193.594 224.12 211.985 211.986M35 35L265 265" stroke="#040939" stroke-width="5" stroke-linecap="round" stroke-linejoin="round"/>
</svg>
