<svg width="300" height="300" viewBox="0 0 300 300" fill="none" xmlns="http://www.w3.org/2000/svg">
<g clip-path="url(#clip0_1_240)">
<path d="M225 162.5V165V162.5ZM89.9104 82.7555L87.507 82.067L89.9104 82.7555ZM87.5304 88.2971L88.8649 90.4112L87.5304 88.2971ZM96.8307 159.078L97.8767 156.807L96.8307 159.078ZM90.6693 159.078L89.6233 156.807L90.6693 159.078ZM93.75 157.962V160.462V157.962ZM210.084 82.7356L207.681 83.4249V83.4249L210.084 82.7356ZM211.906 86.896L210.401 88.8926L211.906 86.896ZM150 37.5V40C177.384 40 200.489 58.3473 207.681 83.4249L210.084 82.7356L212.487 82.0464C204.697 54.8821 179.674 35 150 35V37.5ZM216.153 87.5V90H225V87.5V85H216.153V87.5ZM225 87.5V90C244.33 90 260 105.67 260 125H262.5H265C265 102.909 247.091 85 225 85V87.5ZM262.5 125H260C260 144.33 244.33 160 225 160V162.5V165C247.091 165 265 147.091 265 125H262.5ZM225 162.5V160H112.5V162.5V165H225V162.5ZM112.5 162.5V160C107.275 160 102.324 158.856 97.8767 156.807L96.8307 159.078L95.7847 161.349C100.874 163.693 106.537 165 112.5 165V162.5ZM90.6693 159.078L89.6233 156.807C85.1764 158.856 80.2253 160 75 160V162.5V165C80.9626 165 86.6262 163.693 91.7153 161.349L90.6693 159.078ZM75 162.5V160C55.67 160 40 144.33 40 125H37.5H35C35 147.091 52.9086 165 75 165V162.5ZM37.5 125H40C40 105.67 55.67 90 75 90V87.5V85C52.9086 85 35 102.909 35 125H37.5ZM75 87.5V90C76.9798 90 78.9194 90.1646 80.8065 90.4801L81.2187 88.0144L81.631 85.5486C79.4729 85.1878 77.2575 85 75 85V87.5ZM89.9104 82.7555L92.3137 83.4439C99.4997 58.3566 122.609 40 150 40V37.5V35C120.319 35 95.291 54.8922 87.507 82.067L89.9104 82.7555ZM81.2187 88.0144L80.8065 90.4801C82.5361 90.7693 84.0113 91.0187 85.1689 91.1018C86.2597 91.18 87.6572 91.1735 88.8649 90.4112L87.5304 88.2971L86.1959 86.1831C86.4361 86.0315 86.459 86.1815 85.5266 86.1146C84.6609 86.0525 83.4641 85.8551 81.631 85.5486L81.2187 88.0144ZM89.9104 82.7555L87.507 82.067C87.0212 83.7631 86.7061 84.8525 86.4063 85.608C86.0911 86.4025 85.9753 86.3224 86.1959 86.1831L87.5304 88.2971L88.8649 90.4112C90.0531 89.6611 90.6564 88.4538 91.0539 87.4519C91.4668 86.4111 91.8579 85.0351 92.3137 83.4439L89.9104 82.7555ZM96.8307 159.078L97.8767 156.807C97.1004 156.45 96.4065 156.129 95.8249 155.906C95.246 155.684 94.5385 155.462 93.75 155.462V157.962V160.462C93.6192 160.462 93.6445 160.425 94.0377 160.576C94.4281 160.725 94.9456 160.962 95.7847 161.349L96.8307 159.078ZM90.6693 159.078L91.7153 161.349C92.5544 160.962 93.0719 160.725 93.4623 160.576C93.8555 160.425 93.8808 160.462 93.75 160.462V157.962V155.462C92.9615 155.462 92.254 155.684 91.6751 155.906C91.0935 156.129 90.3996 156.45 89.6233 156.807L90.6693 159.078ZM210.084 82.7356L207.681 83.4249C208.006 84.5573 208.301 85.5966 208.632 86.4155C208.974 87.2626 209.475 88.1949 210.401 88.8926L211.906 86.896L213.41 84.8993C213.535 84.993 213.465 85.0305 213.267 84.5412C213.058 84.0236 212.843 83.2848 212.487 82.0464L210.084 82.7356ZM216.153 87.5V85C214.947 85 214.25 84.9963 213.747 84.94C213.295 84.8894 213.309 84.8231 213.41 84.8993L211.906 86.896L210.401 88.8926C211.304 89.5729 212.294 89.8086 213.191 89.909C214.037 90.0037 215.062 90 216.153 90V87.5Z" fill="#040939"/>
<path d="M150 237.5V212.5" stroke="#040939" stroke-width="5" stroke-linecap="round"/>
<path d="M212.5 250V212.5" stroke="#040939" stroke-width="5" stroke-linecap="round"/>
<path d="M87.5 262.5V212.5" stroke="#040939" stroke-width="5" stroke-linecap="round"/>
</g>

<defs>
<clipPath id="clip0_1_240">
<rect width="300" height="300" fill="white"/>
</clipPath>
</defs>
</svg>
